<svg width="17" height="16" viewBox="0 0 17 16" fill="none" xmlns="http://www.w3.org/2000/svg">
<path d="M5.44179 3.77556C5.44179 3.77556 1.74174 4.07761 1.66622 8.6838C1.66622 8.6838 1.59071 12.1573 4.30912 15.1023C4.30912 15.1023 5.66832 16.6125 7.10304 15.7063C7.10304 15.7063 8.61326 14.8757 10.2745 15.6308C10.2745 15.6308 11.6337 16.4615 12.6154 15.6308C12.6154 15.6308 14.5787 13.9696 15.3338 11.7042C15.3338 11.7042 12.9929 11.0246 13.0684 8.30624C13.0684 8.30624 12.9174 6.49397 14.8807 5.3613C14.8807 5.3613 13.628 3.70005 11.8753 3.77556C11.8753 3.77556 10.9541 3.70005 9.82144 4.22863C9.82144 4.22863 8.8398 4.75721 7.48059 4.15312C7.48059 4.15312 6.49895 3.70005 5.44179 3.77556Z" fill="white"/>
<path d="M8.31122 3.85108C8.31122 3.85108 11.5582 3.70005 11.4827 0C11.4827 0 8.00917 0.528579 8.31122 3.85108Z" fill="white"/>
</svg>
