<svg xmlns="http://www.w3.org/2000/svg" width="20" height="20" viewBox="0 0 20 20" fill="none">
<path fill-rule="evenodd" clip-rule="evenodd" d="M5 0C5.55228 0 6 0.447715 6 1V2H14V1C14 0.447715 14.4477 0 15 0C15.5523 0 16 0.447715 16 1V2H17C18.6569 2 20 3.34315 20 5V17C20 18.6569 18.6569 20 17 20H3C1.34315 20 0 18.6569 0 17V5C0 3.34315 1.34315 2 3 2H4V1C4 0.447715 4.44772 0 5 0ZM3 4C2.44772 4 2 4.44772 2 5V6H18V5C18 4.44772 17.5523 4 17 4H3ZM18 8H2V17C2 17.5523 2.44772 18 3 18H17C17.5523 18 18 17.5523 18 17V8ZM10.4719 9.61833C10.797 9.79234 11 10.1312 11 10.5V14.5L11.5 14.5C12.0523 14.5 12.5 14.9477 12.5 15.5C12.5 16.0523 12.0523 16.5 11.5 16.5H8.5C7.94771 16.5 7.5 16.0523 7.5 15.5C7.5 14.9477 7.94772 14.5 8.5 14.5L9 14.5V12.3661C8.54703 12.6282 7.96231 12.4962 7.66795 12.0547C7.3616 11.5952 7.48577 10.9743 7.9453 10.6679L9.4453 9.66795C9.75216 9.46338 10.1467 9.44431 10.4719 9.61833Z" fill="#757470"/>
</svg>