<svg xmlns="http://www.w3.org/2000/svg" width="16" height="16" viewBox="0 0 16 16" fill="none">
<path fill-rule="evenodd" clip-rule="evenodd" d="M3.82702 0.394374C3.3012 -0.131458 2.44866 -0.131458 1.92283 0.394374L0.614099 1.70312C0.182386 2.13483 0 2.74941 0 3.43228C0 4.11581 0.181022 4.90659 0.52089 5.75626C1.2014 7.45756 2.54756 9.46702 4.5403 11.4598C6.53304 13.4525 8.54249 14.7987 10.2438 15.4792C11.0934 15.8191 11.8842 16.0001 12.5677 16.0001C13.2506 16.0001 13.8652 15.8177 14.2969 15.386L15.6056 14.0773C16.1315 13.5514 16.1315 12.6989 15.6056 12.1731L13.6425 10.2099C13.1167 9.68411 12.2642 9.68411 11.7383 10.2099L11.084 10.8643L11.0838 10.8645C11.0815 10.8669 11.0678 10.8807 11.0146 10.8871C10.9545 10.8943 10.8607 10.8892 10.7272 10.8558C10.4586 10.7886 10.1112 10.6285 9.71702 10.392C8.93405 9.92222 8.06103 9.209 7.42604 8.57401C6.79106 7.93902 6.07784 7.066 5.60806 6.28302C5.37153 5.88881 5.21142 5.54147 5.14427 5.27283C5.1109 5.13935 5.10573 5.04551 5.11294 4.98546C5.11933 4.93223 5.1332 4.91858 5.1356 4.91622L5.13576 4.91606L5.79012 4.26169C6.31595 3.73586 6.31595 2.88332 5.79012 2.35749L3.82702 0.394374Z" fill="#201F1E"/>
</svg>