<svg xmlns="http://www.w3.org/2000/svg" width="21" height="12" viewBox="0 0 21 12" fill="none">
<path d="M1.5 0.714355C2.0462 0.714355 2.49012 1.15226 2.49984 1.69614C2.50009 1.6961 2.50078 1.69782 2.50192 1.70245C2.50706 1.72341 2.52416 1.79302 2.57895 1.91971C2.65609 2.09804 2.78224 2.3305 2.96389 2.60195C3.32654 3.14387 3.87568 3.78939 4.59128 4.40767C6.02268 5.6444 8.0457 6.7113 10.4895 6.71435L10.5 6.71429L10.5105 6.71435C12.9543 6.7113 14.9773 5.6444 16.4087 4.40767C17.1243 3.78939 17.6735 3.14387 18.0361 2.60195C18.2178 2.3305 18.3439 2.09804 18.421 1.91971C18.4758 1.79303 18.4929 1.72342 18.4981 1.70246C18.4992 1.69783 18.4998 1.69557 18.5 1.6956C18.5097 1.15172 18.9538 0.714355 19.5 0.714355C20.0523 0.714355 20.5 1.16207 20.5 1.71436C20.5 2.06751 20.3825 2.4228 20.2567 2.71369C20.1209 3.02754 19.9307 3.36696 19.6983 3.71426C19.2328 4.40985 18.5632 5.18932 17.7163 5.92104C17.4366 6.16264 17.1357 6.4007 16.8142 6.62978L17.7946 8.32784C18.0707 8.80613 17.9069 9.41772 17.4286 9.69387C16.9503 9.97001 16.3387 9.80613 16.0625 9.32784L15.0938 7.64995C14.0331 8.16121 12.8288 8.53774 11.5 8.66624V10.2857C11.5 10.838 11.0523 11.2857 10.5 11.2857C9.94771 11.2857 9.5 10.838 9.5 10.2857V8.66624C8.17121 8.53774 6.96688 8.16121 5.90619 7.64995L4.93746 9.32784C4.66131 9.80613 4.04972 9.97001 3.57143 9.69387C3.09314 9.41772 2.92926 8.80613 3.20541 8.32784L4.18578 6.62978C3.86435 6.4007 3.56335 6.16264 3.28372 5.92104C2.43682 5.18932 1.76721 4.40985 1.30173 3.71426C1.06932 3.36696 0.879065 3.02754 0.743312 2.71369C0.61749 2.4228 0.5 2.06751 0.5 1.71436C0.5 1.16207 0.947715 0.714355 1.5 0.714355Z" fill="#201F1E"/>
</svg>