<svg width="32" height="32" viewBox="0 0 32 32" fill="none" xmlns="http://www.w3.org/2000/svg">
<path d="M28.7921 12.7278C28.8139 13.2502 28.7204 13.7613 28.5255 14.2523C30.2308 14.8366 31.3867 15.9208 31.4401 17.2056C31.5131 18.9611 29.5041 20.5143 26.7552 20.9872C26.0078 23.0161 23.047 24.62 19.4459 24.7698C17.1101 24.8669 14.9921 24.3321 13.5428 23.4094C12.3742 24.0048 10.8965 24.3913 9.27814 24.4586C5.37605 24.6208 2.13434 22.8659 2.03756 20.5388C2.00051 19.6478 2.42988 18.8021 3.19299 18.0885C1.63121 17.3149 0.62431 16.1536 0.568815 14.8191C0.463624 12.2897 3.81668 10.0961 8.05808 9.91976C9.01141 9.88011 9.92848 9.94575 10.7786 10.1001C12.4949 8.51924 15.3934 7.41252 18.7183 7.27424C24.1473 7.04847 28.6575 9.49012 28.7921 12.7278Z" fill="white"/>
<path fill-rule="evenodd" clip-rule="evenodd" d="M27.152 21.466C28.3519 21.2219 29.4213 20.7779 30.2492 20.1894C31.3124 19.4336 32.0481 18.3797 31.9975 17.1646C31.9362 15.6901 30.7583 14.5576 29.2201 13.901C29.3211 13.5077 29.3667 13.1017 29.3494 12.6869C29.2706 10.7916 27.9183 9.22681 26.0039 8.19041C24.0775 7.14751 21.4889 6.57876 18.6907 6.69513C15.4065 6.83171 12.4618 7.88862 10.6026 9.48325C9.78877 9.35482 8.92374 9.30339 8.03038 9.34054C5.826 9.43221 3.82517 10.048 2.37146 10.999C0.929165 11.9426 -0.0611524 13.2836 0.00293894 14.8248C0.061356 16.2295 0.974117 17.393 2.29219 18.2141C1.75198 18.8957 1.43604 19.6879 1.47167 20.5446C1.53155 21.9845 2.55722 23.15 3.95894 23.9088C5.37265 24.6742 7.26241 25.0871 9.29713 25.0025C10.8595 24.9375 12.311 24.5874 13.5091 24.031C15.0563 24.923 17.1771 25.4089 19.465 25.3137C21.3388 25.2358 23.0621 24.7795 24.4276 24.0633C25.6672 23.4131 26.6563 22.5235 27.152 21.466ZM25.4688 9.17888C23.7492 8.24797 21.3682 7.70878 18.7374 7.81819C15.5183 7.95206 12.7801 9.01855 11.1861 10.4676C11.1676 10.4873 11.1477 10.5056 11.1266 10.5224C10.9598 10.6778 10.806 10.8376 10.6662 11.001C10.4643 11.2367 10.1095 11.2642 9.87372 11.0624C9.7074 10.92 9.64472 10.7015 9.69308 10.5023C9.17271 10.4547 8.63182 10.4405 8.07709 10.4636C6.04007 10.5483 4.24367 11.1174 2.9868 11.9397C1.71851 12.7694 1.0849 13.7898 1.126 14.7781C1.16913 15.8152 1.96206 16.8298 3.41021 17.5535C3.42912 17.5616 3.44766 17.5708 3.46574 17.581C3.57799 17.6359 3.69408 17.689 3.81396 17.7403C4.09932 17.8625 4.23163 18.1928 4.1095 18.4782C3.98736 18.7635 3.65703 18.8958 3.37168 18.7737L3.31145 18.7477C2.80825 19.3104 2.57028 19.91 2.59472 20.4979C2.63162 21.385 3.27519 22.2605 4.49406 22.9204C5.70091 23.5737 7.38306 23.9571 9.25043 23.8794C10.7931 23.8153 12.1852 23.4479 13.271 22.8973C13.2788 22.8931 13.2867 22.8891 13.2946 22.8852C13.4292 22.8164 13.559 22.7447 13.6837 22.6704C13.9504 22.5117 14.2953 22.5991 14.4541 22.8658C14.5336 22.9993 14.5514 23.1524 14.5159 23.2919C15.8072 23.9139 17.5248 24.2694 19.4182 24.1907C21.1456 24.1188 22.7034 23.6983 23.9055 23.0679C24.725 22.638 25.3552 22.1242 25.7728 21.5773C25.5992 21.4956 25.4719 21.3271 25.4521 21.1223C25.4223 20.8134 25.6486 20.5387 25.9576 20.5089C26.1917 20.4864 26.4208 20.4557 26.644 20.4176C26.6521 20.416 26.6603 20.4146 26.6684 20.4134C27.847 20.209 28.8609 19.7972 29.5979 19.2733C30.4868 18.6414 30.9034 17.9055 30.8745 17.2113C30.8396 16.3716 30.1332 15.516 28.8086 14.9467C28.7858 14.9892 28.7624 15.0314 28.7384 15.0735C28.5842 15.3429 28.2408 15.4363 27.9714 15.2821C27.702 15.1279 27.6086 14.7846 27.7628 14.5152C28.0929 13.9383 28.2516 13.3395 28.2264 12.7336C28.1705 11.3912 27.2004 10.1163 25.4688 9.17888Z" fill="#FFD83D"/>
<path fill-rule="evenodd" clip-rule="evenodd" d="M16.032 13.4567C16.269 13.5529 16.3543 13.8119 16.2223 14.0353C15.8374 14.687 15.0755 14.9452 14.4098 14.9434C13.7405 14.9415 13.0378 14.6856 12.6272 14.1668C12.478 13.9783 12.5407 13.7009 12.7672 13.5473C12.9938 13.3938 13.2984 13.4221 13.4476 13.6106C13.6733 13.8958 14.0911 14.0616 14.512 14.0628C14.9365 14.0639 15.2344 13.9064 15.364 13.6869C15.4959 13.4636 15.795 13.3605 16.032 13.4567ZM19.2655 14.4002C19.5266 14.4421 19.6788 14.6702 19.6053 14.9097C19.5075 15.229 19.6208 15.4746 19.883 15.6669C20.1614 15.8711 20.5817 15.9857 20.9633 15.9819C21.2334 15.9792 21.4327 16.1741 21.4083 16.4173C21.3839 16.6604 21.1451 16.8597 20.8749 16.8624C20.3034 16.8682 19.6721 16.705 19.2164 16.3708C18.7444 16.0247 18.441 15.4714 18.6597 14.7582C18.7331 14.5186 19.0044 14.3584 19.2655 14.4002ZM16.1692 17.0814C16.9442 17.4296 17.3896 18.1845 17.4146 19.1323C17.4209 19.3735 17.2062 19.5936 16.935 19.6238C16.6638 19.6541 16.4388 19.4829 16.4325 19.2417C16.4135 18.519 16.0844 18.0674 15.6606 17.877C15.2429 17.6894 14.6216 17.7056 13.8682 18.139C13.6299 18.2761 13.3317 18.2245 13.2021 18.0236C13.0726 17.8228 13.1608 17.5489 13.3991 17.4117C14.3864 16.8437 15.3881 16.7305 16.1692 17.0814Z" fill="#B35900"/>
</svg>
