<svg width="44" height="44" viewBox="0 0 44 44" fill="none" xmlns="http://www.w3.org/2000/svg">
<rect width="44" height="44" rx="4" fill="#F8F8F7"/>
<path d="M34.875 14.9136C35.0296 15.8421 35.058 16.7624 34.9728 17.6571C36.9453 18.5235 38.4552 20.337 38.8354 22.6208C39.3549 25.7411 37.5947 28.7142 34.7709 29.8382C34.4809 33.5299 31.7146 36.6908 27.8972 37.3263C25.4212 37.7385 23.0194 37.0024 21.2359 35.5068C20.1347 36.6873 18.6499 37.5272 16.9344 37.8128C12.798 38.5015 8.88648 35.7065 8.19783 31.5701C7.93415 29.9863 8.18119 28.4355 8.81869 27.086C6.95231 25.8675 5.58245 23.9014 5.18756 21.5294C4.43902 17.0333 7.47702 12.7817 11.9731 12.0332C12.9837 11.8649 13.9819 11.888 14.9308 12.0759C16.3706 9.08353 19.1952 6.81487 22.7198 6.22808C28.4748 5.26996 33.9169 9.15859 34.875 14.9136Z" fill="white"/>
<path fill-rule="evenodd" clip-rule="evenodd" d="M34.8494 29.896C37.6807 28.7434 39.4403 25.749 38.9172 22.6071C38.5357 20.3158 37.031 18.492 35.0608 17.6054C35.1399 16.7224 35.1091 15.815 34.9568 14.8999C33.9911 9.09973 28.5063 5.18056 22.7061 6.14621C19.1764 6.73386 16.3434 8.9951 14.8839 11.9823C13.9442 11.8037 12.9577 11.7851 11.9594 11.9513C7.41816 12.7074 4.34963 17.0017 5.10569 21.543C5.5003 23.9133 6.85891 25.8824 8.71318 27.1157C8.09134 28.4647 7.85366 30.0082 8.11596 31.5837C8.81214 35.7653 12.7664 38.5908 16.9479 37.8946C18.6544 37.6105 20.1352 36.7837 21.2428 35.6204C23.0377 37.0972 25.4377 37.8198 27.9108 37.4081C31.749 36.7691 34.535 33.6027 34.8494 29.896ZM22.7334 6.30984C19.2437 6.89082 16.4456 9.13352 15.0143 12.0935C15.0114 12.107 15.0054 12.1191 14.9972 12.1291C14.8392 12.4589 14.6982 12.7975 14.575 13.1437C14.5597 13.1869 14.5123 13.2094 14.4691 13.194C14.4259 13.1787 14.4034 13.1313 14.4188 13.0881C14.534 12.7643 14.6645 12.447 14.8098 12.1372C13.902 11.9698 12.9501 11.9546 11.9867 12.115C7.53577 12.856 4.52831 17.0649 5.26932 21.5158C5.65946 23.8592 7.01083 25.8024 8.85295 27.0093L8.85452 27.01C8.86214 27.0136 8.86895 27.0182 8.87488 27.0236C9.02628 27.1221 9.18097 27.2156 9.33868 27.304C9.37865 27.3264 9.39289 27.3769 9.37049 27.4169C9.3481 27.4568 9.29755 27.4711 9.25759 27.4487C9.12068 27.372 8.986 27.2914 8.85372 27.2072C8.2529 28.5217 8.02436 30.0233 8.27959 31.5564C8.96072 35.6477 12.8295 38.4121 16.9207 37.731C18.6155 37.4488 20.0825 36.6198 21.1713 35.4544C21.1716 35.454 21.1718 35.4537 21.1721 35.4534C21.1744 35.4507 21.1767 35.4482 21.1792 35.4459C21.3171 35.2979 21.4488 35.1445 21.5742 34.9861C21.6026 34.9502 21.6548 34.9441 21.6907 34.9726C21.7266 35.001 21.7327 35.0532 21.7043 35.0891C21.5931 35.2295 21.4769 35.3662 21.3561 35.4988C23.1147 36.9421 25.4633 37.6474 27.8836 37.2445C31.617 36.6229 34.335 33.5613 34.6768 29.9635C34.465 30.0428 34.2477 30.112 34.0251 30.1704C33.9808 30.182 33.9354 30.1555 33.9238 30.1112C33.9122 30.0669 33.9387 30.0215 33.983 30.0099C34.2409 29.9423 34.4917 29.8598 34.7346 29.7634C34.7383 29.7615 34.7422 29.76 34.7462 29.7587C37.5309 28.647 39.2662 25.7132 38.7536 22.6344C38.3849 20.4198 36.9404 18.653 35.0437 17.7799C35.0108 18.0892 34.9645 18.3955 34.9051 18.6979C34.8963 18.7428 34.8527 18.7721 34.8078 18.7633C34.7628 18.7544 34.7335 18.7109 34.7423 18.6659C34.9778 17.4662 35.0058 16.2045 34.7931 14.9272C33.8425 9.21735 28.4432 5.35924 22.7334 6.30984Z" fill="#C3C3C1"/>
<path d="M20.8357 20.8586C20.8357 21.4083 20.5869 21.8539 20.0893 21.8539C19.5916 21.8539 19.3428 21.4083 19.3428 20.8586C19.3428 20.3089 19.5916 19.8633 20.0893 19.8633C20.5869 19.8633 20.8357 20.3089 20.8357 20.8586Z" fill="#757470"/>
<path d="M24.9832 20.8586C24.9832 21.4083 24.7344 21.8539 24.2367 21.8539C23.7391 21.8539 23.4902 21.4083 23.4902 20.8586C23.4902 20.3089 23.7391 19.8633 24.2367 19.8633C24.7344 19.8633 24.9832 20.3089 24.9832 20.8586Z" fill="#757470"/>
<path fill-rule="evenodd" clip-rule="evenodd" d="M25.0483 23.3794C25.1218 23.4341 25.1372 23.538 25.0825 23.6115C24.446 24.4682 23.3741 24.8688 22.278 24.8613C21.1809 24.8538 20.034 24.4385 19.2253 23.6299C19.1606 23.5651 19.1606 23.4601 19.2253 23.3953C19.2901 23.3305 19.3952 23.3305 19.4599 23.3953C20.1996 24.1349 21.2594 24.5226 22.2802 24.5296C23.302 24.5365 24.2594 24.1631 24.8162 23.4136C24.8709 23.3401 24.9748 23.3248 25.0483 23.3794Z" fill="#757470"/>
</svg>
