<svg width="375" height="555" viewBox="0 0 375 555" fill="none" xmlns="http://www.w3.org/2000/svg">
<rect width="375" height="555" fill="#F8F8F7"/>
<path d="M247.64 244.394C248.363 248.731 248.495 253.031 248.097 257.21C257.312 261.258 264.365 269.73 266.141 280.398C268.568 294.974 260.346 308.863 247.154 314.114C245.8 331.359 232.877 346.125 215.044 349.094C203.478 351.02 192.258 347.581 183.926 340.594C178.782 346.109 171.846 350.033 163.832 351.367C144.509 354.584 126.237 341.527 123.02 322.204C121.788 314.806 122.942 307.561 125.92 301.257C117.201 295.565 110.802 286.38 108.957 275.3C105.46 254.296 119.652 234.435 140.656 230.939C145.376 230.153 150.04 230.26 154.472 231.138C161.198 217.159 174.393 206.561 190.858 203.82C217.742 199.344 243.165 217.51 247.64 244.394Z" fill="white"/>
<path fill-rule="evenodd" clip-rule="evenodd" d="M248.039 314.763C261.315 309.194 269.531 295.066 267.064 280.248C265.273 269.493 258.276 260.906 249.087 256.636C249.418 252.587 249.26 248.433 248.562 244.244C244.002 216.853 218.1 198.344 190.708 202.904C174.186 205.655 160.896 216.171 153.952 230.092C149.623 229.317 145.09 229.258 140.507 230.021C118.996 233.602 104.461 253.943 108.042 275.454C109.884 286.517 116.16 295.736 124.746 301.592C121.941 307.888 120.889 315.051 122.106 322.358C125.407 342.188 144.159 355.588 163.99 352.286C171.904 350.969 178.795 347.189 184.007 341.864C192.464 348.645 203.666 351.936 215.202 350.015C233.269 347.007 246.413 332.178 248.039 314.763ZM191.014 204.742C174.913 207.423 161.999 217.761 155.379 231.411C155.351 231.506 155.308 231.593 155.254 231.671C154.533 233.18 153.889 234.729 153.326 236.312C153.154 236.797 152.621 237.05 152.136 236.877C151.652 236.705 151.398 236.172 151.571 235.687C152.035 234.382 152.553 233.098 153.121 231.84C149.151 231.185 145.006 231.16 140.813 231.859C120.317 235.271 106.468 254.652 109.88 275.148C111.674 285.923 117.881 294.862 126.346 300.421C126.41 300.453 126.469 300.492 126.521 300.535C127.207 300.98 127.906 301.402 128.619 301.802C129.068 302.053 129.228 302.621 128.976 303.07C128.725 303.519 128.157 303.679 127.708 303.427C127.243 303.167 126.784 302.897 126.33 302.618C123.757 308.526 122.806 315.22 123.944 322.052C127.076 340.867 144.868 353.581 163.684 350.448C172.486 348.983 179.951 344.311 185.085 337.825C185.405 337.421 185.99 337.353 186.394 337.673C186.797 337.992 186.865 338.578 186.546 338.981C186.138 339.497 185.715 340.002 185.28 340.495C193.328 346.901 203.953 349.999 214.896 348.177C231.79 345.365 244.17 331.701 246.087 315.507C245.342 315.763 244.583 315.992 243.811 316.195C243.314 316.325 242.805 316.027 242.674 315.53C242.544 315.032 242.841 314.523 243.339 314.392C244.518 314.083 245.664 313.707 246.774 313.267C246.801 313.254 246.829 313.243 246.858 313.233C259.624 308.127 267.576 294.673 265.226 280.554C263.579 270.661 257.253 262.715 248.886 258.605C248.74 259.808 248.55 261 248.318 262.18C248.219 262.685 247.73 263.014 247.225 262.915C246.72 262.816 246.391 262.326 246.49 261.821C247.578 256.28 247.707 250.452 246.725 244.55C242.333 218.173 217.391 200.351 191.014 204.742Z" fill="#C3C3C1"/>
<path d="M182.056 271.624C182.056 274.192 180.894 276.274 178.569 276.274C176.244 276.274 175.082 274.192 175.082 271.624C175.082 269.056 176.244 266.975 178.569 266.975C180.894 266.975 182.056 269.056 182.056 271.624Z" fill="#757470"/>
<path d="M201.431 271.624C201.431 274.192 200.269 276.274 197.944 276.274C195.619 276.274 194.457 274.192 194.457 271.624C194.457 269.056 195.619 266.975 197.944 266.975C200.269 266.975 201.431 269.056 201.431 271.624Z" fill="#757470"/>
<path fill-rule="evenodd" clip-rule="evenodd" d="M202.016 283.024C202.567 283.434 202.682 284.212 202.272 284.762C199.187 288.915 194.018 290.825 188.793 290.789C183.56 290.754 178.08 288.774 174.206 284.9C173.721 284.415 173.721 283.628 174.206 283.143C174.691 282.658 175.477 282.658 175.962 283.143C179.32 286.501 184.148 288.273 188.81 288.305C193.478 288.337 197.789 286.63 200.278 283.281C200.688 282.73 201.466 282.615 202.016 283.024Z" fill="#757470"/>
</svg>
