<svg width="108" height="160" viewBox="0 0 108 160" fill="none" xmlns="http://www.w3.org/2000/svg">
<rect width="108" height="160" rx="8" fill="#F8F8F7"/>
<path d="M78.0572 66.7585C78.346 68.4934 78.3991 70.2131 78.2399 71.8848C81.9256 73.5039 84.7471 76.8926 85.4576 81.1599C86.4283 86.9905 83.1392 92.546 77.8627 94.6463C77.3208 101.545 72.1517 107.451 65.0186 108.638C60.392 109.409 55.904 108.033 52.5714 105.239C50.5137 107.444 47.7393 109.014 44.5337 109.547C36.8045 110.834 29.4956 105.612 28.2088 97.8825C27.7161 94.923 28.1777 92.0252 29.3689 89.5035C25.8814 87.2267 23.3217 83.5528 22.5839 79.1207C21.1852 70.7194 26.8619 62.7749 35.2632 61.3762C37.1515 61.0618 39.0168 61.1049 40.7898 61.456C43.4803 55.8645 48.7583 51.6254 55.3442 50.5289C66.0979 48.7386 76.2668 56.0048 78.0572 66.7585Z" fill="white"/>
<path fill-rule="evenodd" clip-rule="evenodd" d="M78.2155 94.9053C83.5259 92.6777 86.8123 87.0266 85.8255 81.0992C85.1093 76.7975 82.3106 73.3628 78.6346 71.6547C78.7671 70.035 78.7039 68.3732 78.425 66.6979C76.6008 55.7412 66.24 48.3378 55.2833 50.1619C48.6743 51.2622 43.3585 55.4687 40.5807 61.0371C38.849 60.727 37.0361 60.7032 35.2026 61.0085C26.5983 62.441 20.7844 70.5774 22.2169 79.1817C22.9537 83.6071 25.4642 87.2944 28.8986 89.637C27.7763 92.1555 27.3557 95.0206 27.8423 97.9433C29.1629 105.875 36.6637 111.235 44.596 109.915C47.7615 109.388 50.5178 107.876 52.6029 105.746C55.9858 108.458 60.4662 109.774 65.0809 109.006C72.3076 107.803 77.5651 101.871 78.2155 94.9053ZM55.4057 50.8971C48.9653 51.9693 43.7995 56.1045 41.1516 61.5648C41.1402 61.6025 41.1232 61.6373 41.1017 61.6685C40.8134 62.2721 40.5558 62.8917 40.3305 63.5249C40.2615 63.7188 40.0484 63.8201 39.8545 63.7511C39.6606 63.6821 39.5594 63.469 39.6283 63.2751C39.8142 62.7528 40.0212 62.2394 40.2486 61.7362C38.6604 61.4741 37.0024 61.4643 35.325 61.7436C27.1267 63.1085 21.5871 70.861 22.952 79.0593C23.6696 83.3695 26.1524 86.9448 29.5385 89.1686C29.564 89.1814 29.5874 89.1968 29.6086 89.2143C29.8826 89.3921 30.1624 89.5611 30.4477 89.7209C30.6272 89.8216 30.6912 90.0486 30.5906 90.2282C30.49 90.4077 30.2629 90.4717 30.0833 90.3711C29.8974 90.2669 29.7136 90.1589 29.5321 90.0474C28.5029 92.4105 28.1225 95.0883 28.5774 97.8209C29.8304 105.347 36.9474 110.433 44.4736 109.18C47.9944 108.593 50.9804 106.724 53.0341 104.13C53.1618 103.969 53.3962 103.942 53.5575 104.069C53.7189 104.197 53.7462 104.431 53.6184 104.593C53.4551 104.799 53.2862 105.001 53.1119 105.198C56.3312 107.761 60.5811 109 64.9585 108.271C71.7161 107.146 76.668 101.681 77.4346 95.2029C77.1368 95.3052 76.8333 95.3971 76.5246 95.478C76.3255 95.5302 76.1219 95.4111 76.0697 95.2121C76.0175 95.013 76.1366 94.8093 76.3357 94.7571C76.8071 94.6336 77.2655 94.4828 77.7095 94.3068C77.7204 94.3018 77.7317 94.2973 77.7432 94.2934C82.8495 92.2511 86.0306 86.8692 85.0903 81.2216C84.4315 77.2645 81.9011 74.0861 78.5545 72.4423C78.4959 72.9234 78.42 73.4003 78.3273 73.8723C78.2877 74.0742 78.0919 74.2058 77.8899 74.1661C77.688 74.1265 77.5564 73.9307 77.596 73.7287C78.0311 71.5122 78.0829 69.181 77.6898 66.8203C75.9333 56.2696 65.9563 49.1405 55.4057 50.8971Z" fill="#C3C3C1"/>
<path d="M51.8239 77.6498C51.8239 78.677 51.3589 79.5097 50.429 79.5097C49.4991 79.5097 49.0342 78.677 49.0342 77.6498C49.0342 76.6227 49.4991 75.79 50.429 75.79C51.3589 75.79 51.8239 76.6227 51.8239 77.6498Z" fill="#757470"/>
<path d="M59.5719 77.6498C59.5719 78.677 59.107 79.5097 58.1771 79.5097C57.2472 79.5097 56.7822 78.677 56.7822 77.6498C56.7822 76.6227 57.2472 75.79 58.1771 75.79C59.107 75.79 59.5719 76.6227 59.5719 77.6498Z" fill="#757470"/>
<path fill-rule="evenodd" clip-rule="evenodd" d="M59.8069 82.2104C60.0271 82.374 60.073 82.6852 59.9093 82.9055C58.6751 84.5666 56.6077 85.3305 54.5175 85.3163C52.4246 85.302 50.2325 84.5103 48.6826 82.9605C48.4886 82.7665 48.4886 82.4519 48.6826 82.2579C48.8767 82.0638 49.1912 82.0638 49.3853 82.2579C50.7284 83.601 52.6597 84.3099 54.5243 84.3226C56.3917 84.3354 58.1161 83.6528 59.1118 82.3128C59.2754 82.0926 59.5866 82.0467 59.8069 82.2104Z" fill="#757470"/>
</svg>
