<svg width="72" height="72" viewBox="0 0 72 72" fill="none" xmlns="http://www.w3.org/2000/svg">
<rect width="72" height="72" rx="8" fill="#F8F8F7"/>
<path d="M52.1763 27.2328C52.3675 28.3815 52.4027 29.5201 52.2973 30.6269C54.7376 31.6989 56.6056 33.9425 57.076 36.7679C57.7187 40.6283 55.5411 44.3065 52.0475 45.6971C51.6887 50.2644 48.2664 54.1749 43.5436 54.9612C40.4803 55.4712 37.5089 54.5605 35.3024 52.7102C33.94 54.1706 32.103 55.2097 29.9807 55.5631C24.8632 56.4151 20.024 52.9572 19.1721 47.8398C18.8458 45.8804 19.1515 43.9617 19.9402 42.2921C17.6311 40.7847 15.9364 38.3522 15.4478 35.4177C14.5218 29.8553 18.2803 24.5953 23.8427 23.6693C25.093 23.4611 26.328 23.4896 27.5019 23.7221C29.2832 20.02 32.7777 17.2133 37.1382 16.4873C44.2582 15.302 50.9909 20.1129 52.1763 27.2328Z" fill="white"/>
<path fill-rule="evenodd" clip-rule="evenodd" d="M37.1891 16.791C32.9468 17.4973 29.5436 20.2205 27.7983 23.8168C27.7895 23.8445 27.7769 23.8702 27.7614 23.8935C27.5723 24.2897 27.4033 24.6964 27.2555 25.112C27.1985 25.2722 27.0224 25.3559 26.8622 25.2989C26.7021 25.2419 26.6184 25.0658 26.6754 24.9057C26.79 24.5836 26.9167 24.2666 27.055 23.9554C26.0339 23.7954 24.9698 23.7938 23.8936 23.9729C18.4988 24.8711 14.8536 29.9725 15.7518 35.3672C16.2239 38.2032 17.8574 40.5557 20.0853 42.0191C20.1022 42.028 20.1179 42.0383 20.1324 42.0498C20.3126 42.1667 20.4966 42.2778 20.6842 42.3829C20.8325 42.466 20.8853 42.6536 20.8022 42.8019C20.7191 42.9503 20.5315 43.0031 20.3832 42.92C20.2798 42.8621 20.1775 42.8024 20.0762 42.7411C19.4202 44.2795 19.1809 46.0167 19.476 47.7892C20.3001 52.739 24.9806 56.0835 29.9304 55.2594C31.979 54.9184 33.7523 53.9171 35.0692 52.5091C35.0747 52.5028 35.0803 52.4967 35.0862 52.4909C35.2516 52.3131 35.4098 52.1288 35.5604 51.9387C35.6659 51.8054 35.8595 51.7828 35.9928 51.8884C36.1261 51.9939 36.1486 52.1875 36.0431 52.3208C35.9477 52.4413 35.8494 52.5596 35.7484 52.6755C37.8607 54.3346 40.6357 55.1333 43.4933 54.6576C47.9065 53.9228 51.1494 50.3749 51.6911 46.1545C51.5224 46.2103 51.351 46.2611 51.1771 46.3067C51.0127 46.3498 50.8444 46.2514 50.8013 46.0869C50.7582 45.9225 50.8566 45.7542 51.021 45.7111C51.3299 45.6302 51.6303 45.5314 51.9212 45.4162C51.9297 45.4123 51.9384 45.4089 51.9474 45.4058C55.3011 44.0636 57.3903 40.5283 56.7726 36.8185C56.3449 34.2492 54.7162 32.1796 52.5556 31.0889C52.5182 31.3798 52.4714 31.6684 52.4153 31.9542C52.3825 32.121 52.2207 32.2297 52.0539 32.197C51.8871 32.1642 51.7784 32.0025 51.8111 31.8356C52.0978 30.3752 52.1319 28.8391 51.8729 27.2834C50.7155 20.3312 44.1413 15.6336 37.1891 16.791ZM52.3381 45.9106C55.8601 44.4155 58.036 40.658 57.38 36.7174C56.9048 33.8636 55.0554 31.582 52.6231 30.4369C52.7066 29.3729 52.6633 28.282 52.4802 27.1823C51.2669 19.8947 44.3756 14.9704 37.088 16.1837C32.708 16.9129 29.1821 19.6931 27.329 23.3768C26.1894 23.1778 24.9975 23.165 23.7924 23.3656C18.0623 24.3196 14.1905 29.7382 15.1444 35.4683C15.6321 38.3973 17.2865 40.8409 19.552 42.4022C18.8196 44.0691 18.5475 45.961 18.8687 47.8904C19.7486 53.1755 24.7463 56.7467 30.0315 55.8668C32.1212 55.5189 33.9434 54.5268 35.328 53.1281C37.5756 54.9109 40.5409 55.7732 43.5944 55.2649C48.3946 54.4657 51.8901 50.5339 52.3381 45.9106Z" fill="#C3C3C1"/>
<path d="M34.6263 34.1393C34.6263 34.8194 34.3185 35.3707 33.7028 35.3707C33.0871 35.3707 32.7793 34.8194 32.7793 34.1393C32.7793 33.4593 33.0871 32.908 33.7028 32.908C34.3185 32.908 34.6263 33.4593 34.6263 34.1393Z" fill="#757470"/>
<path d="M39.7572 34.1393C39.7572 34.8194 39.4494 35.3707 38.8337 35.3707C38.218 35.3707 37.9102 34.8194 37.9102 34.1393C37.9102 33.4593 38.218 32.908 38.8337 32.908C39.4494 32.908 39.7572 33.4593 39.7572 34.1393Z" fill="#757470"/>
<path fill-rule="evenodd" clip-rule="evenodd" d="M39.8383 37.2583C39.9293 37.3259 39.9483 37.4544 39.8807 37.5454C39.0932 38.6052 37.7671 39.1009 36.4109 39.0916C35.0536 39.0824 33.6347 38.5685 32.6343 37.5681C32.5542 37.488 32.5542 37.358 32.6343 37.2779C32.7145 37.1977 32.8444 37.1977 32.9246 37.2779C33.8396 38.1929 35.1507 38.6726 36.4137 38.6812C37.6778 38.6898 38.8623 38.2278 39.5512 37.3006C39.6188 37.2096 39.7473 37.1907 39.8383 37.2583Z" fill="#757470"/>
</svg>
