<svg width="68" height="100" viewBox="0 0 68 100" fill="none" xmlns="http://www.w3.org/2000/svg">
<rect width="68" height="100" rx="8" fill="#F8F8F7"/>
<path d="M49.697 41.3606C49.8855 42.4925 49.9201 43.6146 49.8162 44.7053C52.221 45.7617 54.0619 47.9726 54.5254 50.7568C55.1587 54.561 53.0128 58.1857 49.5701 59.556C49.2166 64.0568 45.844 67.9103 41.19 68.6852C38.1714 69.1877 35.2432 68.2903 33.0688 66.4669C31.7262 67.9061 29.9161 68.9301 27.8246 69.2783C22.7817 70.1179 18.013 66.7104 17.1734 61.6675C16.8519 59.7366 17.1531 57.8459 17.9303 56.2006C15.6549 54.7151 13.9848 52.3181 13.5034 49.4263C12.5908 43.9449 16.2946 38.7615 21.7761 37.8489C23.0081 37.6438 24.2251 37.6719 25.3819 37.901C27.1373 34.2528 30.5809 31.487 34.878 30.7716C41.8942 29.6035 48.5289 34.3443 49.697 41.3606Z" fill="white"/>
<path fill-rule="evenodd" clip-rule="evenodd" d="M49.9134 59.8087C53.3897 58.3148 55.5336 54.5964 54.8844 50.6973C54.4153 47.8794 52.5961 45.6235 50.2006 44.481C50.2789 43.441 50.2348 42.3752 50.056 41.3012C48.8548 34.0863 42.0322 29.2112 34.8173 30.4123C30.4973 31.1316 27.0166 33.8662 25.1765 37.4925C24.0603 37.3027 22.8943 37.2929 21.7157 37.4892C16.0356 38.4348 12.1975 43.8061 13.1432 49.4862C13.6236 52.3718 15.2465 54.782 17.4708 56.3308C16.7598 57.9726 16.4979 59.8317 16.8135 61.7272C17.6861 66.9688 22.6427 70.5105 27.8843 69.6379C29.9372 69.2961 31.7299 68.3274 33.0982 66.9608C35.3209 68.7051 38.2422 69.5458 41.2497 69.0451C45.9955 68.255 49.4546 64.3759 49.9134 59.8087ZM34.9371 31.1318C30.7787 31.8241 27.4425 34.4926 25.7303 38.0172C25.7204 38.0469 25.7069 38.0747 25.6903 38.1002C25.5056 38.4877 25.3404 38.8853 25.1958 39.2917C25.1283 39.4814 24.9198 39.5805 24.73 39.513C24.5403 39.4455 24.4412 39.237 24.5087 39.0472C24.6132 38.7535 24.7279 38.4641 24.8524 38.1794C23.8766 38.0348 22.8618 38.0378 21.8354 38.2086C16.5527 39.0881 12.9831 44.0836 13.8626 49.3664C14.3247 52.1415 15.9221 54.4438 18.1015 55.8771C18.1216 55.8877 18.1403 55.9 18.1575 55.9136C18.3323 56.0269 18.5108 56.1346 18.6927 56.2365C18.8684 56.335 18.931 56.5572 18.8325 56.7329C18.7341 56.9086 18.5118 56.9712 18.3361 56.8728C18.2544 56.8269 18.1733 56.78 18.0928 56.7321C17.4717 58.2214 17.2483 59.8975 17.5329 61.6074C18.3394 66.4517 22.9203 69.7249 27.7645 68.9184C30.0308 68.5411 31.9525 67.3383 33.2745 65.6684C33.3995 65.5105 33.6288 65.4838 33.7868 65.6088C33.9447 65.7338 33.9714 65.9632 33.8463 66.1211C33.7651 66.2238 33.6817 66.3248 33.5962 66.4242C35.6585 68.0221 38.3544 68.7878 41.1299 68.3257C45.4178 67.6118 48.5777 64.1858 49.1448 60.0953C49.0072 60.139 48.8679 60.1794 48.727 60.2164C48.5322 60.2674 48.3328 60.1509 48.2818 59.956C48.2307 59.7612 48.3473 59.5619 48.5421 59.5108C48.8439 59.4317 49.1373 59.3353 49.4216 59.2227C49.4306 59.2187 49.4398 59.215 49.4492 59.2117C52.727 57.8991 54.7687 54.4433 54.165 50.8171C53.7519 48.3359 52.1933 46.3314 50.1192 45.2551C50.0842 45.5139 50.0417 45.7708 49.9917 46.0255C49.9529 46.2231 49.7612 46.3519 49.5636 46.3131C49.3659 46.2743 49.2372 46.0826 49.276 45.885C49.557 44.4529 49.5905 42.9466 49.3365 41.4209C48.2015 34.6034 41.7547 29.9968 34.9371 31.1318Z" fill="#C3C3C1"/>
<path d="M32.5809 48.4683C32.5809 49.1385 32.2775 49.6817 31.6708 49.6817C31.0641 49.6817 30.7607 49.1385 30.7607 48.4683C30.7607 47.7982 31.0641 47.2549 31.6708 47.2549C32.2775 47.2549 32.5809 47.7982 32.5809 48.4683Z" fill="#757470"/>
<path d="M37.6366 48.4683C37.6366 49.1385 37.3332 49.6817 36.7265 49.6817C36.1198 49.6817 35.8164 49.1385 35.8164 48.4683C35.8164 47.7982 36.1198 47.2549 36.7265 47.2549C37.3332 47.2549 37.6366 47.7982 37.6366 48.4683Z" fill="#757470"/>
<path fill-rule="evenodd" clip-rule="evenodd" d="M37.8861 51.3138C38.1017 51.4739 38.1466 51.7785 37.9864 51.994C37.1422 53.1302 35.7374 53.6419 34.3373 53.6324C32.9345 53.6228 31.4618 53.0928 30.4168 52.0479C30.2269 51.858 30.2269 51.5501 30.4168 51.3602C30.6067 51.1703 30.9146 51.1703 31.1045 51.3602C31.9471 52.2029 33.1646 52.6519 34.3439 52.6599C35.526 52.668 36.5952 52.2359 37.2058 51.414C37.366 51.1985 37.6706 51.1536 37.8861 51.3138Z" fill="#757470"/>
</svg>
