<svg width="92" height="136" viewBox="0 0 92 136" fill="none" xmlns="http://www.w3.org/2000/svg">
<rect width="92" height="136" rx="8" fill="#F8F8F7"/>
<path d="M66.2536 56.8523C66.4967 58.3129 66.5414 59.7607 66.4074 61.1681C69.5103 62.5311 71.8856 65.3839 72.4837 68.9765C73.3009 73.885 70.532 78.562 66.0898 80.3302C65.6336 86.1376 61.282 91.1099 55.2768 92.1097C51.3818 92.7582 47.6035 91.6002 44.7979 89.2475C43.0656 91.1044 40.7299 92.4258 38.0312 92.875C31.5242 93.9584 25.3711 89.5616 24.2878 83.0546C23.873 80.5632 24.2616 78.1236 25.2644 76.0006C22.3285 74.0839 20.1735 70.991 19.5523 67.2597C18.3748 60.1869 23.1539 53.4987 30.2267 52.3212C31.8164 52.0565 33.3867 52.0927 34.8794 52.3883C37.1444 47.6811 41.5877 44.1122 47.1323 43.1891C56.1854 41.6819 64.7463 47.7991 66.2536 56.8523Z" fill="white"/>
<path fill-rule="evenodd" clip-rule="evenodd" d="M66.4423 80.5894C70.9189 78.6941 73.6856 73.9209 72.8522 68.915C72.2484 65.288 69.8958 62.3891 66.8027 60.937C66.9101 59.5817 66.8555 58.1919 66.6222 56.7908C65.0811 47.534 56.3276 41.2791 47.0707 42.8203C41.5026 43.7473 37.0211 47.2839 34.6689 51.9687C33.2178 51.714 31.6999 51.6968 30.1652 51.9523C22.8887 53.1638 17.972 60.0446 19.1834 67.321C19.8035 71.0456 21.9094 74.152 24.7923 76.1343C23.858 78.254 23.5101 80.6611 23.9188 83.116C25.0361 89.8267 31.3818 94.361 38.0925 93.2438C40.7514 92.8011 43.0691 91.5372 44.8285 89.7553C47.6842 92.0259 51.455 93.125 55.3381 92.4785C61.4373 91.4631 65.8777 86.4649 66.4423 80.5894ZM47.1935 43.5579C41.7932 44.4569 37.4612 47.9235 35.2397 52.5015C35.2287 52.5364 35.2129 52.5688 35.1933 52.598C34.9525 53.1026 34.7373 53.6205 34.549 54.1497C34.4798 54.3442 34.266 54.4458 34.0714 54.3766C33.8769 54.3074 33.7753 54.0936 33.8445 53.899C33.9926 53.4828 34.1566 53.0732 34.336 52.6712C33.0289 52.4639 31.6663 52.4605 30.288 52.6899C23.4189 53.8335 18.7774 60.3291 19.921 67.1982C20.5223 70.8097 22.6025 73.8053 25.4398 75.6686C25.4606 75.6796 25.4801 75.6923 25.498 75.7066C25.7277 75.8556 25.9623 75.9973 26.2014 76.1313C26.3816 76.2323 26.4458 76.4601 26.3448 76.6403C26.2439 76.8204 26.016 76.8846 25.8359 76.7836C25.6987 76.7068 25.563 76.6275 25.4287 76.546C24.5873 78.5096 24.2794 80.7288 24.6564 82.9932C25.7058 89.2965 31.6664 93.5556 37.9697 92.5062C40.5788 92.0718 42.8371 90.7965 44.5143 89.0033C44.5209 88.9956 44.5277 88.9882 44.5348 88.9812C44.7457 88.7546 44.9473 88.5197 45.1392 88.2773C45.2674 88.1154 45.5025 88.0881 45.6644 88.2162C45.8263 88.3444 45.8537 88.5795 45.7255 88.7414C45.6005 88.8993 45.4717 89.0541 45.3391 89.2058C48.0306 91.326 51.5702 92.3478 55.2153 91.7409C60.8443 90.8038 64.9781 86.2722 65.6571 80.8861C65.4343 80.9605 65.2079 81.0279 64.978 81.0881C64.7783 81.1405 64.5739 81.021 64.5216 80.8213C64.4692 80.6215 64.5887 80.4172 64.7884 80.3648C65.1832 80.2614 65.567 80.1351 65.9387 79.9877C65.9472 79.9839 65.956 79.9805 65.9649 79.9773C70.2388 78.2687 72.9015 73.7644 72.1146 69.0378C71.5683 65.7563 69.4841 63.1148 66.7211 61.7286C66.6731 62.1064 66.6125 62.4811 66.5397 62.8522C66.4999 63.0548 66.3034 63.1868 66.1008 63.1471C65.8982 63.1073 65.7662 62.9108 65.8059 62.7082C66.1708 60.8491 66.2143 58.8938 65.8846 56.9136C64.4113 48.0641 56.043 42.0846 47.1935 43.5579Z" fill="#C3C3C1"/>
<path d="M44.1679 66.0227C44.1679 66.8875 43.7765 67.5885 42.9936 67.5885C42.2108 67.5885 41.8193 66.8875 41.8193 66.0227C41.8193 65.158 42.2108 64.457 42.9936 64.457C43.7765 64.457 44.1679 65.158 44.1679 66.0227Z" fill="#757470"/>
<path d="M50.6913 66.0227C50.6913 66.8875 50.2999 67.5885 49.5171 67.5885C48.7342 67.5885 48.3428 66.8875 48.3428 66.0227C48.3428 65.158 48.7342 64.457 49.5171 64.457C50.2999 64.457 50.6913 65.158 50.6913 66.0227Z" fill="#757470"/>
<path fill-rule="evenodd" clip-rule="evenodd" d="M50.9361 69.7976C51.157 69.9618 51.2031 70.2741 51.0389 70.4951C49.9805 71.9195 48.2124 72.5691 46.4347 72.557C44.6543 72.5449 42.7878 71.8717 41.4663 70.5503C41.2716 70.3556 41.2716 70.0399 41.4663 69.8453C41.661 69.6506 41.9766 69.6506 42.1713 69.8453C43.2854 70.9593 44.8902 71.5494 46.4415 71.56C47.9956 71.5706 49.4197 71.0026 50.2386 69.9004C50.4028 69.6794 50.7151 69.6334 50.9361 69.7976Z" fill="#757470"/>
</svg>
