<svg width="71" height="40" viewBox="0 0 71 40" fill="none" xmlns="http://www.w3.org/2000/svg">
<path d="M63.9323 12.6797C63.9806 13.841 63.7727 14.9775 63.3394 16.0689C67.1309 17.368 69.7007 19.7786 69.8195 22.6351C69.9818 26.5379 65.5152 29.9911 59.4037 31.0425C57.7419 35.5535 51.1593 39.1194 43.153 39.4523C37.96 39.6683 33.251 38.4791 30.0287 36.4278C27.4308 37.7514 24.1453 38.6107 20.5473 38.7604C11.8719 39.1212 4.66465 35.2194 4.44949 30.0457C4.36711 28.0647 5.32174 26.1844 7.01832 24.5979C3.54606 22.878 1.30745 20.296 1.18407 17.3292C0.950197 11.7056 8.40497 6.82876 17.8348 6.4366C19.9543 6.34846 21.9932 6.49439 23.8833 6.83747C27.699 3.32285 34.1431 0.862311 41.5354 0.554892C53.6055 0.0529363 63.633 5.4814 63.9323 12.6797Z" fill="white"/>
<path fill-rule="evenodd" clip-rule="evenodd" d="M59.7827 31.5054C62.5158 30.9976 64.93 30.0157 66.7587 28.7158C69.0099 27.1156 70.4391 24.9781 70.3408 22.6133C70.2142 19.5698 67.6152 17.1213 64.009 15.7551C64.3413 14.7557 64.4977 13.7185 64.4536 12.6579C64.2932 8.8017 61.5339 5.5102 57.3958 3.27002C53.2466 1.02379 47.6256 -0.221583 41.5127 0.0326318C34.162 0.338325 27.6746 2.74955 23.7209 6.27823C21.8642 5.96045 19.8746 5.8286 17.8123 5.91436C13.0196 6.11367 8.70337 7.45262 5.59866 9.48367C2.50457 11.5078 0.533497 14.282 0.661122 17.3509C0.787484 20.3894 2.93487 22.9661 6.1442 24.731C4.68664 26.2842 3.8452 28.1121 3.92651 30.0673C4.04478 32.9112 6.07804 35.3149 9.07619 36.938C12.0855 38.5671 16.1527 39.4661 20.5682 39.2825C24.1109 39.1351 27.371 38.312 29.9997 37.0259C33.3188 39.0481 38.0294 40.1884 43.1737 39.9744C47.2451 39.8051 50.9694 38.8137 53.8996 37.2768C56.7066 35.8045 58.8302 33.8058 59.7827 31.5054ZM41.5562 1.07698C34.2752 1.37977 27.99 3.79488 24.2856 7.17684C24.258 7.20921 24.2266 7.23799 24.1923 7.26265C23.7933 7.63311 23.425 8.01495 23.0896 8.40668C22.9019 8.62594 22.572 8.65151 22.3527 8.4638C22.1335 8.27608 22.1079 7.94617 22.2956 7.7269C22.4509 7.54557 22.6124 7.36648 22.7799 7.18974C21.2184 6.97157 19.5646 6.88764 17.8557 6.95871C13.2186 7.15155 9.09254 8.44708 6.17088 10.3584C3.2386 12.2766 1.59923 14.7527 1.70547 17.3074C1.81719 19.9939 3.85121 22.437 7.21122 24.1107C7.23777 24.1212 7.26361 24.134 7.28846 24.149C7.55794 24.2815 7.83582 24.409 8.1218 24.5314C8.38716 24.645 8.5102 24.9522 8.39662 25.2176C8.28305 25.4829 7.97587 25.6059 7.71051 25.4924C7.51025 25.4067 7.31296 25.3181 7.1188 25.2269C5.66386 26.6834 4.90058 28.334 4.97086 30.0239C5.06775 32.3537 6.74569 34.4878 9.5738 36.0188C12.3908 37.5438 16.2649 38.4153 20.5248 38.2381C24.049 38.0915 27.252 37.2515 29.7717 35.9716C29.7837 35.965 29.7958 35.9588 29.8082 35.9531C30.1241 35.7916 30.4293 35.6233 30.7228 35.4485C30.9708 35.3008 31.2916 35.3822 31.4393 35.6302C31.5869 35.8782 31.5056 36.1989 31.2576 36.3466C31.2006 36.3805 31.1432 36.4142 31.0854 36.4477C34.163 38.1486 38.4302 39.1255 43.1303 38.9301C47.0655 38.7664 50.6358 37.8083 53.4141 36.3512C55.8241 35.0871 57.6015 33.4683 58.5364 31.7008C58.2958 31.7317 58.0532 31.759 57.8087 31.7826C57.5214 31.8103 57.266 31.5998 57.2383 31.3125C57.2106 31.0252 57.421 30.7699 57.7083 30.7422C58.2482 30.6901 58.7772 30.6192 59.2936 30.5309C59.3076 30.5279 59.3217 30.5255 59.3359 30.5237C62.0494 30.054 64.4112 29.1021 66.1531 27.8639C68.2421 26.3789 69.3746 24.5372 69.2964 22.6568C69.1956 20.2317 67.0753 18.0281 63.6253 16.7274C63.4946 17.0129 63.3495 17.2948 63.1904 17.5727C63.0471 17.8232 62.7278 17.9101 62.4773 17.7667C62.2267 17.6234 62.1399 17.3041 62.2832 17.0535C63.0766 15.6672 63.4716 14.2015 63.4092 12.7013C63.2702 9.35924 60.8662 6.33735 56.8982 4.18922C52.9413 2.04712 47.5134 0.829238 41.5562 1.07698Z" fill="#C3C3C1"/>
<path fill-rule="evenodd" clip-rule="evenodd" d="M35.0925 25.5743C35.4727 25.5809 35.7866 25.2984 35.7936 24.9434C35.8253 23.3516 35.1737 22.0073 33.9848 21.2698C32.7876 20.5272 31.2012 20.4959 29.587 21.2352C29.2456 21.3916 29.1046 21.7768 29.2719 22.0956C29.4393 22.4145 29.8518 22.5462 30.1931 22.3898C31.4722 21.804 32.5219 21.9061 33.2231 22.3411C33.9328 22.7812 34.4421 23.6589 34.4171 24.9195C34.41 25.2745 34.7124 25.5677 35.0925 25.5743Z" fill="#757470"/>
<path fill-rule="evenodd" clip-rule="evenodd" d="M34.0436 15.0732C34.3678 15.2587 34.4695 15.6546 34.2709 15.9574C33.629 16.9356 32.4289 17.2043 31.3788 17.0599C30.3237 16.9148 29.2376 16.341 28.6324 15.3989C28.4368 15.0944 28.5425 14.6995 28.8685 14.5168C29.1945 14.3341 29.6174 14.4328 29.813 14.7373C30.1758 15.302 30.8706 15.6902 31.5794 15.7876C32.2931 15.8858 32.8396 15.6777 33.097 15.2854C33.2956 14.9827 33.7195 14.8876 34.0436 15.0732Z" fill="#757470"/>
<path fill-rule="evenodd" clip-rule="evenodd" d="M39.2271 17.3933C38.8657 17.2829 38.477 17.467 38.3588 17.8045C37.966 18.9261 38.3949 19.8948 39.1095 20.5653C39.8021 21.2153 40.7878 21.6217 41.6918 21.7338C42.0687 21.7806 42.4148 21.5331 42.4648 21.1811C42.5148 20.8291 42.2499 20.5058 41.873 20.4591C41.234 20.3798 40.5394 20.0843 40.0853 19.6582C39.6531 19.2526 39.4689 18.7709 39.6673 18.2043C39.7855 17.8668 39.5884 17.5037 39.2271 17.3933Z" fill="#757470"/>
</svg>
