<svg width="120" height="120" viewBox="0 0 120 120" fill="none" xmlns="http://www.w3.org/2000/svg">
<rect width="120" height="120" rx="16" fill="#EBEBEA"/>
<path fill-rule="evenodd" clip-rule="evenodd" d="M48 51.6C48 49.6118 49.6118 48 51.6 48H68.4C70.3882 48 72 49.6118 72 51.6V68.4C72 70.3882 70.3882 72 68.4 72H51.6C49.6118 72 48 70.3882 48 68.4V51.6ZM51.6 50.4C50.9373 50.4 50.4 50.9373 50.4 51.6V67.903L55.5515 62.7515C55.7765 62.5264 56.0817 62.4 56.4 62.4C56.7183 62.4 57.0235 62.5264 57.2485 62.7515L60 65.5029L65.1515 60.3515C65.3765 60.1264 65.6817 60 66 60C66.3183 60 66.6235 60.1264 66.8485 60.3515L69.6 63.1029V51.6C69.6 50.9373 69.0627 50.4 68.4 50.4H51.6ZM69.6 66.4971L66 62.8971L60.8485 68.0485C60.3799 68.5172 59.6201 68.5172 59.1515 68.0485L56.4 65.2971L52.0971 69.6H68.4C69.0627 69.6 69.6 69.0627 69.6 68.4V66.4971ZM56.1 55.2C55.6029 55.2 55.2 55.6029 55.2 56.1C55.2 56.5971 55.6029 57 56.1 57C56.5971 57 57 56.5971 57 56.1C57 55.6029 56.5971 55.2 56.1 55.2ZM52.8 56.1C52.8 54.2775 54.2775 52.8 56.1 52.8C57.9225 52.8 59.4 54.2775 59.4 56.1C59.4 57.9225 57.9225 59.4 56.1 59.4C54.2775 59.4 52.8 57.9225 52.8 56.1Z" fill="#C3C3C1"/>
</svg>
