<svg width="108" height="100" viewBox="0 0 108 100" fill="none" xmlns="http://www.w3.org/2000/svg">
<path d="M94.2329 27.8544C94.716 30.7558 94.8048 33.6319 94.5385 36.4277C100.702 39.1354 105.421 44.8026 106.609 51.9393C108.233 61.6903 102.732 70.9813 93.9077 74.4939C93.0014 86.0304 84.3567 95.9081 72.4273 97.8941C64.6898 99.1823 57.1841 96.882 51.6107 92.2083C48.1693 95.8971 43.5294 98.5219 38.1685 99.4145C25.2422 101.567 13.0188 92.8323 10.8668 79.906C10.0428 74.9567 10.8147 70.1104 12.8069 65.893C6.97452 62.0854 2.6937 55.9412 1.45965 48.5289C-0.879523 34.4786 8.61421 21.1923 22.6645 18.8531C25.8226 18.3273 28.942 18.3994 31.9072 18.9866C36.4068 9.63544 45.2336 2.54587 56.2479 0.712138C74.2323 -2.282 91.2388 9.86999 94.2329 27.8544Z" fill="white"/>
<path fill-rule="evenodd" clip-rule="evenodd" d="M94.1544 74.675C103.002 71.0733 108.501 61.7157 106.866 51.8972C105.674 44.7367 100.972 39.0374 94.8151 36.2669C95.0622 33.5074 94.9661 30.6719 94.49 27.8123C91.4724 9.68666 74.3324 -2.56074 56.2068 0.456909C45.1765 2.2933 36.3234 9.35969 31.7624 18.6946C28.8259 18.1367 25.743 18.0785 22.6234 18.5979C8.43187 20.9606 -1.15728 34.3804 1.20539 48.5719C2.43857 55.979 6.68421 62.1324 12.4788 65.9867C10.5356 70.2022 9.79282 75.0255 10.6125 79.949C12.7881 93.0165 25.145 101.846 38.2124 99.6706C43.5452 98.7828 48.1725 96.199 51.6338 92.5636C57.2429 97.1787 64.7428 99.437 72.4714 98.1503C84.4657 96.1534 93.1719 86.2585 94.1544 74.675ZM56.2919 0.96826C45.3867 2.78382 36.6427 9.79225 32.1698 19.0422C32.1609 19.0845 32.1421 19.1222 32.1163 19.1534C31.6227 20.1841 31.182 21.2423 30.7971 22.3241C30.7492 22.4589 30.6009 22.5294 30.4661 22.4814C30.3312 22.4334 30.2607 22.2852 30.3087 22.1503C30.6687 21.1384 31.0768 20.1468 31.5307 19.1787C28.6939 18.6556 25.7192 18.608 22.7085 19.1092C8.79942 21.4249 -0.598917 34.5777 1.71675 48.4868C2.93595 55.8099 7.15897 61.8826 12.9156 65.6539L12.9205 65.6562C12.9443 65.6674 12.9656 65.6818 12.9841 65.6986C13.4573 66.0064 13.9406 66.2987 14.4335 66.575C14.5584 66.6449 14.6029 66.8029 14.5329 66.9278C14.4629 67.0527 14.305 67.0971 14.1801 67.0272C13.7522 66.7874 13.3314 66.5357 12.918 66.2726C11.0404 70.3803 10.3262 75.0729 11.1239 79.8639C13.2524 92.6489 25.3422 101.288 38.1273 99.1592C43.4235 98.2775 48.0078 95.6867 51.4104 92.045C51.4113 92.0439 51.4121 92.0428 51.4131 92.0417C51.42 92.0334 51.4274 92.0257 51.4351 92.0185C51.8659 91.556 52.2777 91.0765 52.6695 90.5816C52.7584 90.4693 52.9214 90.4504 53.0336 90.5392C53.1458 90.6281 53.1648 90.7911 53.076 90.9033C52.7284 91.3423 52.3655 91.7694 51.9879 92.1836C57.4835 96.6939 64.823 98.8981 72.3862 97.6389C84.0532 95.6965 92.547 86.129 93.615 74.8858C92.9534 75.1339 92.274 75.3501 91.5784 75.5324C91.44 75.5687 91.2983 75.4859 91.262 75.3474C91.2257 75.2089 91.3085 75.0672 91.447 75.031C92.2531 74.8197 93.0368 74.5617 93.7956 74.2605C93.8073 74.2548 93.8194 74.2499 93.8319 74.246C102.534 70.7719 107.957 61.6038 106.355 51.9824C105.203 45.0619 100.689 39.5407 94.7618 36.8121C94.659 37.7789 94.5141 38.7359 94.3286 39.6808C94.301 39.8213 94.1648 39.9128 94.0244 39.8852C93.8839 39.8576 93.7924 39.7214 93.8199 39.5809C94.5558 35.8318 94.6433 31.8892 93.9787 27.8974C91.008 10.0542 74.1351 -2.00237 56.2919 0.96826Z" fill="#C3C3C1"/>
<path d="M50.3608 46.4326C50.3608 48.1504 49.5832 49.5429 48.0281 49.5429C46.4729 49.5429 45.6953 48.1504 45.6953 46.4326C45.6953 44.7148 46.4729 43.3223 48.0281 43.3223C49.5832 43.3223 50.3608 44.7148 50.3608 46.4326Z" fill="#757470"/>
<path d="M63.3217 46.4326C63.3217 48.1504 62.5442 49.5429 60.989 49.5429C59.4338 49.5429 58.6562 48.1504 58.6562 46.4326C58.6562 44.7148 59.4338 43.3223 60.989 43.3223C62.5442 43.3223 63.3217 44.7148 63.3217 46.4326Z" fill="#757470"/>
<path fill-rule="evenodd" clip-rule="evenodd" d="M63.5263 54.3103C63.7561 54.4811 63.804 54.8058 63.6332 55.0356C61.6441 57.7126 58.2945 58.9646 54.869 58.9413C51.4406 58.9179 47.8565 57.62 45.3296 55.093C45.1271 54.8905 45.1271 54.5623 45.3296 54.3599C45.532 54.1574 45.8602 54.1574 46.0627 54.3599C48.374 56.6712 51.6858 57.8828 54.876 57.9045C58.0691 57.9263 61.0609 56.7592 62.801 54.4173C62.9718 54.1874 63.2965 54.1396 63.5263 54.3103Z" fill="#757470"/>
</svg>
