<svg width="106" height="100" viewBox="0 0 106 100" fill="none" xmlns="http://www.w3.org/2000/svg">
<path d="M93.2329 27.8544C93.716 30.7558 93.8048 33.6319 93.5385 36.4277C99.7025 39.1354 104.421 44.8026 105.609 51.9393C107.233 61.6903 101.732 70.9813 92.9077 74.4939C92.0014 86.0304 83.3567 95.9081 71.4273 97.8941C63.6898 99.1823 56.1841 96.882 50.6107 92.2083C47.1693 95.8971 42.5294 98.5219 37.1685 99.4145C24.2422 101.567 12.0188 92.8323 9.86676 79.906C9.04277 74.9567 9.81474 70.1104 11.8069 65.893C5.97452 62.0854 1.6937 55.9412 0.459648 48.5289C-1.87952 34.4786 7.61421 21.1923 21.6645 18.8531C24.8226 18.3273 27.942 18.3994 30.9072 18.9866C35.4068 9.63544 44.2336 2.54587 55.2479 0.712138C73.2323 -2.282 90.2388 9.86999 93.2329 27.8544Z" fill="white"/>
</svg>
