<svg width="20" height="20" viewBox="0 0 20 20" fill="none" xmlns="http://www.w3.org/2000/svg">
<path fill-rule="evenodd" clip-rule="evenodd" d="M4.05662 4.92834C5.62657 3.34062 8.17675 3.34062 9.7467 4.92834C9.8363 5.01896 9.92071 5.11297 9.99994 5.20988C10.0792 5.11297 10.1636 5.01896 10.2532 4.92834C11.8231 3.34062 14.3733 3.34062 15.9433 4.92834C17.5925 6.5963 17.0598 8.86589 16.0491 10.5305L16.0471 10.5338L16.0417 10.5427L16.0235 10.5718C16.0081 10.5963 15.9861 10.6307 15.9573 10.6745C15.8998 10.7619 15.8154 10.8866 15.7029 11.0431C15.478 11.356 15.141 11.7964 14.6836 12.3207C13.769 13.369 12.3712 14.7549 10.4245 16.1276C10.1699 16.3072 9.82994 16.3072 9.57535 16.1276C7.6287 14.7549 6.23093 13.369 5.3163 12.3207C4.85888 11.7964 4.52184 11.356 4.29697 11.0431C4.18451 10.8866 4.10005 10.7619 4.04254 10.6745C4.01379 10.6307 3.99177 10.5963 3.97636 10.5718L3.95819 10.5427L3.95278 10.5338L3.95099 10.5309L3.95033 10.5298C2.94009 8.86532 2.40771 6.59592 4.05662 4.92834Z" fill="#757470"/>
</svg>
