<svg xmlns="http://www.w3.org/2000/svg" width="20" height="18" viewBox="0 0 20 18" fill="none">
<path fill-rule="evenodd" clip-rule="evenodd" d="M0.41529 0.188765C0.676058 0.000813842 1.01128 -0.0503253 1.31623 0.0513241L7 1.94591L12.6838 0.051324C12.889 -0.0170983 13.111 -0.0170983 13.3162 0.051324L19.3162 2.05132C19.7246 2.18744 20 2.56958 20 3.00001V17C20 17.3215 19.8455 17.6233 19.5847 17.8113C19.3239 17.9992 18.9887 18.0503 18.6838 17.9487L13 16.0541L7.31623 17.9487C7.11096 18.0171 6.88904 18.0171 6.68377 17.9487L0.683773 15.9487C0.275431 15.8126 5.96046e-07 15.4304 5.96046e-07 15L0 1.00001C0 0.678564 0.154521 0.376716 0.41529 0.188765ZM14 14.2792L18 15.6126V3.72077L14 2.38743V14.2792ZM12 2.38743V14.2792L8 15.6126L8 3.72077L12 2.38743ZM6 3.72077L2 2.38743L2 14.2792L6 15.6126L6 3.72077Z" fill="#757470"/>
</svg>