<svg xmlns="http://www.w3.org/2000/svg" width="21" height="14" viewBox="0 0 21 14" fill="none">
<path fill-rule="evenodd" clip-rule="evenodd" d="M2.50491 7C2.51268 7.02998 2.53194 7.09666 2.57895 7.20535C2.65609 7.38369 2.78224 7.61615 2.96389 7.8876C3.32654 8.42951 3.87568 9.07503 4.59128 9.69331C6.02473 10.9318 8.05149 12 10.5 12C12.9485 12 14.9753 10.9318 16.4087 9.69331C17.1243 9.07503 17.6735 8.42951 18.0361 7.8876C18.2178 7.61615 18.3439 7.38369 18.421 7.20535C18.4681 7.09666 18.4873 7.02998 18.4951 7C18.4873 6.97002 18.4681 6.90334 18.421 6.79465C18.3439 6.61631 18.2178 6.38385 18.0361 6.1124C17.6735 5.57049 17.1243 4.92497 16.4087 4.30669C14.9753 3.06818 12.9485 2 10.5 2C8.05149 2 6.02473 3.06818 4.59128 4.30669C3.87568 4.92497 3.32654 5.57049 2.96389 6.1124C2.78224 6.38385 2.65609 6.61631 2.57895 6.79465C2.53194 6.90334 2.51268 6.97002 2.50491 7ZM3.28372 2.79331C4.97527 1.33182 7.44851 0 10.5 0C13.5515 0 16.0247 1.33182 17.7163 2.79331C18.5632 3.52503 19.2328 4.30451 19.6983 5.0001C19.9307 5.3474 20.1209 5.68681 20.2567 6.00066C20.3825 6.29155 20.5 6.64685 20.5 7C20.5 7.35315 20.3825 7.70845 20.2567 7.99934C20.1209 8.31319 19.9307 8.6526 19.6983 8.9999C19.2328 9.69549 18.5632 10.475 17.7163 11.2067C16.0247 12.6682 13.5515 14 10.5 14C7.44851 14 4.97527 12.6682 3.28372 11.2067C2.43682 10.475 1.76721 9.69549 1.30173 8.9999C1.06932 8.6526 0.879065 8.31319 0.743312 7.99934C0.61749 7.70845 0.5 7.35315 0.5 7C0.5 6.64685 0.61749 6.29155 0.743312 6.00066C0.879065 5.68681 1.06932 5.3474 1.30173 5.0001C1.76721 4.30451 2.43682 3.52503 3.28372 2.79331ZM7 7C7 5.067 8.567 3.5 10.5 3.5C12.433 3.5 14 5.067 14 7C14 8.933 12.433 10.5 10.5 10.5C8.567 10.5 7 8.933 7 7Z" fill="#201F1E"/>
</svg>