<svg width="205" height="60" viewBox="0 0 205 60" fill="none" xmlns="http://www.w3.org/2000/svg">
<path d="M198.698 37.3859H174.645C172.619 37.3859 171.704 36.4709 171.704 34.3794V4.18329C171.704 2.09179 172.619 1.17676 174.645 1.17676H198.044C199.809 1.17676 200.593 1.96107 200.593 3.98721C200.593 5.948 199.809 6.73231 198.044 6.73231H177.783V16.3402H197.194C198.959 16.3402 199.743 17.1245 199.743 19.0853C199.743 21.046 198.959 21.8304 197.194 21.8304H177.783V31.8304H198.698C200.462 31.8304 201.247 32.6147 201.247 34.5755C201.247 36.6016 200.462 37.3859 198.698 37.3859ZM170.658 52.2225H201.639C203.403 52.2225 204.188 53.0068 204.188 55.0983C204.188 57.1898 203.403 57.9741 201.639 57.9741H170.658C168.894 57.9741 168.109 57.1898 168.109 55.0983C168.109 53.0068 168.894 52.2225 170.658 52.2225Z" fill="#804000"/>
<path d="M159.767 60C157.545 60 156.695 59.085 156.695 57.1242V2.87582C156.695 0.915033 157.545 0 159.767 0C161.989 0 162.839 0.915033 162.839 2.87582V57.1242C162.839 59.085 161.989 60 159.767 60ZM140.028 58.9543C133.296 58.9543 128.982 55.1634 128.982 48.3007V11.2418C128.982 4.31372 133.296 0.522877 140.028 0.522877C146.76 0.522877 151.074 4.31372 151.074 11.2418V48.3007C151.074 55.1634 146.76 58.9543 140.028 58.9543ZM140.028 53.4641C143.231 53.4641 145.061 51.7647 145.061 47.9085V11.5686C145.061 7.71242 143.231 6.01307 140.028 6.01307C136.826 6.01307 134.995 7.71242 134.995 11.5686V47.9085C134.995 51.7647 136.826 53.4641 140.028 53.4641Z" fill="#804000"/>
<path d="M118.316 0C120.472 0 121.322 0.915033 121.322 2.87582V57.1242C121.322 59.085 120.472 60 118.316 60C116.159 60 115.309 59.085 115.309 57.1242V2.87582C115.309 0.915033 116.159 0 118.316 0ZM108.904 0.326798C111.061 0.326798 111.845 1.24183 111.845 3.20262V56.7974C111.845 58.7582 111.061 59.6732 108.904 59.6732C106.812 59.6732 105.963 58.7582 105.963 56.7974V30.3268H101.714V55.2941C101.714 57.3856 100.799 58.3007 98.7731 58.3007H85.9627C83.9365 58.3007 83.0215 57.3856 83.0215 55.2941V4.18301C83.0215 2.0915 83.9365 1.17647 85.9627 1.17647H98.7731C100.799 1.17647 101.714 2.0915 101.714 4.18301V24.5752H105.963V3.20262C105.963 1.24183 106.812 0.326798 108.904 0.326798ZM88.8385 52.9412H95.8973V6.53595H88.8385V52.9412Z" fill="#804000"/>
<path d="M47.6726 12.6797H67.8033L68.0648 6.47053H48.2608C46.4961 6.47053 45.7118 5.68621 45.7118 3.66007C45.7118 1.63392 46.4961 0.849609 48.2608 0.849609H70.4177C73.4242 0.849609 74.4046 1.96072 74.2739 4.83654L73.4242 23.3333C73.3589 25.2287 72.5092 26.013 70.287 25.9476C68.0648 25.8823 67.2804 24.8365 67.3458 22.9411L67.5419 18.3006H47.6726C45.9079 18.3006 45.1236 17.5163 45.1236 15.4901C45.1236 13.464 45.9079 12.6797 47.6726 12.6797ZM59.6987 31.111H75.5157C77.2804 31.111 78.0648 31.8954 78.0648 33.9215C78.0648 36.013 77.2804 36.7973 75.5157 36.7973H44.5353C42.7706 36.7973 41.9863 36.013 41.9863 33.9215C41.9863 31.8954 42.7706 31.111 44.5353 31.111H53.555V24.3137C53.555 22.3529 54.4046 21.4378 56.6269 21.4378C58.8491 21.4378 59.6987 22.3529 59.6987 24.3137V31.111ZM51.9863 54.2483H73.2282C74.9929 54.2483 75.7772 54.9673 75.7772 57.1241C75.7772 59.281 74.9929 59.9999 73.2282 59.9999H48.9144C46.7576 59.9999 45.8425 59.0849 45.8425 56.9934V43.6601C45.8425 41.6993 46.6922 40.7842 48.9144 40.7842C51.1367 40.7842 51.9863 41.6993 51.9863 43.6601V54.2483Z" fill="#804000"/>
<path d="M35.4902 13.7909H38.1046C39.8693 13.7909 40.6536 14.5752 40.6536 16.6667C40.6536 18.7582 39.8693 19.5425 38.1046 19.5425H35.4902V30.7843C35.4902 32.7451 34.6405 33.6601 32.4183 33.6601C30.1961 33.6601 29.3464 32.7451 29.3464 30.7843V2.87582C29.3464 0.915033 30.1961 0 32.4183 0C34.6405 0 35.4902 0.915033 35.4902 2.87582V13.7909ZM23.8562 6.73203H3.0719C1.30719 6.73203 0.522876 5.94771 0.522876 3.98693C0.522876 1.96079 1.30719 1.17647 3.0719 1.17647H23.8562C25.6209 1.17647 26.4052 1.96079 26.4052 3.98693C26.4052 5.94771 25.6209 6.73203 23.8562 6.73203ZM26.9281 28.4967C26.9281 30.4575 26.1438 31.2418 24.3791 31.2418H2.54902C0.784314 31.2418 0 30.4575 0 28.4967C0 26.5359 0.784314 25.7516 2.54902 25.7516H4.70588V12.0261C4.70588 10.0654 5.55556 9.15033 7.64706 9.15033C9.73856 9.15033 10.5882 10.0654 10.5882 12.0261V25.7516H16.3399V12.0261C16.3399 10.0654 17.1895 9.15033 19.281 9.15033C21.3725 9.15033 22.2222 10.0654 22.2222 12.0261V25.7516H24.3791C26.1438 25.7516 26.9281 26.5359 26.9281 28.4967ZM32.4837 36.1438C34.5752 36.1438 35.4902 37.0588 35.4902 39.1503V56.9935C35.4902 59.085 34.5752 60 32.549 60H7.64706C5.62092 60 4.70588 59.085 4.70588 56.9935V39.1503C4.70588 37.0588 5.62092 36.1438 7.71242 36.1438C9.80392 36.1438 10.719 37.0588 10.719 39.1503V43.1373H29.4771V39.1503C29.4771 37.0588 30.3922 36.1438 32.4837 36.1438ZM10.719 48.5621V54.5752H29.4771V48.5621H10.719Z" fill="#804000"/>
</svg>
