<svg width="32" height="32" viewBox="0 0 32 32" fill="none" xmlns="http://www.w3.org/2000/svg">
<path d="M27.7526 9.53246C27.8937 10.38 27.9196 11.2201 27.8418 12.0368C29.6424 12.8278 31.0208 14.4833 31.3679 16.568C31.8421 19.4164 30.2353 22.1304 27.6576 23.1565C27.3928 26.5264 24.8676 29.4118 21.3829 29.992C19.1227 30.3683 16.9301 29.6963 15.3021 28.3311C14.2968 29.4086 12.9414 30.1754 11.3754 30.4361C7.59947 31.0647 4.02887 28.5134 3.40023 24.7374C3.15953 23.2917 3.38503 21.876 3.96698 20.644C2.26325 19.5318 1.01277 17.737 0.652289 15.5718C-0.031014 11.4675 2.74223 7.58638 6.84651 6.90308C7.76902 6.7495 8.68025 6.77054 9.54642 6.94207C10.8608 4.21048 13.4392 2.13952 16.6567 1.60386C21.9101 0.729238 26.8779 4.27899 27.7526 9.53246Z" fill="white"/>
<path fill-rule="evenodd" clip-rule="evenodd" d="M28.1704 23.5361C30.8011 22.3288 32.4079 19.4728 31.9097 16.4805C31.554 14.344 30.205 12.6211 28.4162 11.7051C28.4583 10.9639 28.4196 10.2069 28.2927 9.44457C27.3683 3.89245 22.1181 0.140903 16.566 1.06525C13.3122 1.60696 10.6774 3.63448 9.23938 6.33618C8.43476 6.22009 7.59929 6.22441 6.75593 6.36482C2.35301 7.09784 -0.622034 11.2613 0.110989 15.6643C0.47031 17.8225 1.65442 19.6378 3.28564 20.8409C2.79841 22.0655 2.6286 23.4347 2.86066 24.8286C3.53902 28.9032 7.39204 31.6563 11.4666 30.978C12.9768 30.7266 14.3061 30.0385 15.3459 29.065C17.0429 30.3172 19.2268 30.9086 21.4726 30.5347C25.0956 29.9315 27.7508 27.0061 28.1704 23.5361ZM27.2112 9.62463C26.3863 4.6698 21.7009 1.32184 16.746 2.14675C13.7302 2.64884 11.309 4.58104 10.0622 7.1355C10.0501 7.16825 10.0351 7.19932 10.0175 7.22847C9.88649 7.50469 9.76916 7.78799 9.66621 8.07736C9.56473 8.36261 9.25123 8.51157 8.96599 8.41009C8.68074 8.30861 8.53177 7.99511 8.63326 7.70987C8.67241 7.59982 8.71342 7.49054 8.75626 7.3821C8.16318 7.32511 7.55262 7.34365 6.93598 7.44631C3.13035 8.0799 0.558903 11.6786 1.19249 15.4842C1.52345 17.4722 2.66295 19.1232 4.22004 20.1572C4.25405 20.1747 4.28549 20.1954 4.31417 20.2186C4.43128 20.2937 4.55065 20.3654 4.67214 20.4334C4.93625 20.5814 5.03037 20.9155 4.88236 21.1797C4.75205 21.4122 4.47753 21.5129 4.2335 21.4327C3.87284 22.4287 3.75565 23.5282 3.94216 24.6485C4.52107 28.1258 7.80928 30.4754 11.2866 29.8965C12.7186 29.6581 13.9587 28.9608 14.8824 27.9796C14.8946 27.9651 14.9074 27.9514 14.9208 27.9385C15.0326 27.8176 15.1396 27.6926 15.2417 27.5636C15.4296 27.3263 15.7744 27.2862 16.0117 27.4741C16.2491 27.662 16.2892 28.0068 16.1013 28.2441L16.0941 28.2533C17.5478 29.2882 19.3942 29.7692 21.2925 29.4532C24.2361 28.9631 26.4423 26.6985 26.9966 23.936C26.7387 23.9542 26.4963 23.7872 26.4283 23.528C26.3516 23.2351 26.5268 22.9355 26.8197 22.8587C27.0255 22.8048 27.226 22.7395 27.4205 22.6636C27.4429 22.6528 27.4662 22.6436 27.4902 22.6359C29.8129 21.6929 31.2571 19.2369 30.8282 16.6606C30.5565 15.0284 29.5896 13.6854 28.2795 12.8845C28.268 12.9499 28.2558 13.0151 28.2431 13.0801C28.1848 13.3772 27.8967 13.5708 27.5996 13.5125C27.3025 13.4542 27.1089 13.166 27.1672 12.869C27.3714 11.8285 27.3958 10.7339 27.2112 9.62463Z" fill="#FFCE0A"/>
<path fill-rule="evenodd" clip-rule="evenodd" d="M13.8923 17.3862C14.1439 17.3185 14.4027 17.4676 14.4704 17.7192C14.6181 18.2684 15.2419 18.6199 16.0376 18.6061C16.4166 18.5995 16.7754 18.5048 17.0443 18.3455C17.309 18.1886 17.4663 17.984 17.5153 17.7464C17.5679 17.4912 17.8174 17.3271 18.0726 17.3797C18.3278 17.4324 18.4919 17.6819 18.4393 17.9371C18.3247 18.4926 17.9623 18.8982 17.5253 19.1572C17.0923 19.4138 16.5672 19.5405 16.054 19.5494C15.0653 19.5666 13.8715 19.1251 13.5593 17.9643C13.4916 17.7127 13.6407 17.4539 13.8923 17.3862Z" fill="#B35900"/>
<path fill-rule="evenodd" clip-rule="evenodd" d="M11.6203 13.245C11.6708 12.9894 11.9189 12.8231 12.1745 12.8735C12.5167 12.941 13.0459 13.0868 13.5461 13.311C14.0214 13.524 14.5814 13.8555 14.8462 14.3492C14.9071 14.4628 14.9189 14.5963 14.8788 14.7188C14.8388 14.8413 14.7504 14.942 14.6342 14.9977C14.3929 15.1132 14.0082 15.3054 13.6431 15.5043C13.2625 15.7115 12.9517 15.9002 12.8226 16.0108C12.6248 16.1804 12.327 16.1575 12.1574 15.9596C11.9879 15.7618 12.0108 15.464 12.2086 15.2945C12.4255 15.1086 12.8251 14.8754 13.1919 14.6756C13.344 14.5929 13.4988 14.5114 13.646 14.4357C13.513 14.3461 13.3499 14.2569 13.1603 14.1719C12.7366 13.982 12.2776 13.8555 11.9919 13.7992C11.7362 13.7487 11.5699 13.5006 11.6203 13.245Z" fill="#B25900"/>
<path fill-rule="evenodd" clip-rule="evenodd" d="M20.3814 13.245C20.4319 13.5006 20.2655 13.7487 20.0099 13.7992C19.7242 13.8555 19.2652 13.982 18.8415 14.1719C18.6519 14.2569 18.4888 14.3461 18.3558 14.4357C18.503 14.5114 18.6578 14.5929 18.8099 14.6756C19.1767 14.8754 19.5763 15.1086 19.7931 15.2945C19.991 15.464 20.0139 15.7618 19.8443 15.9596C19.6748 16.1575 19.377 16.1804 19.1792 16.0108C19.05 15.9002 18.7393 15.7115 18.3587 15.5043C17.9936 15.3054 17.6088 15.1132 17.3676 14.9977C17.2514 14.942 17.163 14.8413 17.123 14.7188C17.0829 14.5963 17.0947 14.4628 17.1556 14.3492C17.4204 13.8555 17.9804 13.524 18.4556 13.311C18.9559 13.0868 19.4851 12.941 19.8273 12.8735C20.0829 12.8231 20.331 12.9894 20.3814 13.245Z" fill="#B25900"/>
</svg>
