<svg width="68" height="64" viewBox="0 0 68 64" fill="none" xmlns="http://www.w3.org/2000/svg">
<path d="M59.485 17.9726C59.791 19.8105 59.8472 21.6322 59.6785 23.4032C63.583 25.1184 66.5719 28.7082 67.3246 33.2288C68.3529 39.4053 64.8686 45.2906 59.279 47.5155C58.7049 54.8231 53.2291 61.08 45.6727 62.338C40.7715 63.154 36.0171 61.6968 32.4867 58.7364C30.3069 61.073 27.3678 62.7357 23.972 63.301C15.7841 64.6642 8.0414 59.1317 6.67823 50.9437C6.15628 47.8087 6.64528 44.7389 7.90721 42.0675C4.21276 39.6556 1.50115 35.7637 0.719466 31.0685C-0.76224 22.1686 5.25139 13.7526 14.1513 12.2709C16.1517 11.9379 18.1277 11.9835 20.0059 12.3555C22.8561 6.43214 28.4473 1.94139 35.4241 0.779841C46.816 -1.11674 57.5884 6.58072 59.485 17.9726Z" fill="white"/>
<path fill-rule="evenodd" clip-rule="evenodd" d="M35.5054 1.26565C28.7178 2.3957 23.2727 6.75278 20.4802 12.5068C20.4661 12.5511 20.446 12.5923 20.4212 12.6295C20.1186 13.2636 19.8482 13.9143 19.6117 14.5792C19.5205 14.8355 19.2388 14.9694 18.9825 14.8782C18.7262 14.787 18.5924 14.5053 18.6836 14.2491C18.8669 13.7338 19.0696 13.2266 19.291 12.7287C17.6572 12.4726 15.9547 12.47 14.2326 12.7567C5.60105 14.1937 -0.231273 22.356 1.20576 30.9875C1.96121 35.5252 4.57473 39.2891 8.13946 41.6305C8.16646 41.6448 8.19159 41.6613 8.21479 41.6797C8.50308 41.8667 8.7975 42.0445 9.09758 42.2127C9.33489 42.3456 9.41945 42.6458 9.28646 42.8831C9.15348 43.1204 8.8533 43.205 8.616 43.072C8.45063 42.9793 8.28688 42.8839 8.12481 42.7858C7.07525 45.2471 6.69235 48.0267 7.16452 50.8628C8.48302 58.7824 15.972 64.1336 23.8915 62.8151C27.1694 62.2694 30.0065 60.6673 32.1137 58.4146C32.1224 58.4045 32.1315 58.3947 32.1409 58.3855C32.4055 58.101 32.6586 57.8061 32.8995 57.5019C33.0683 57.2886 33.3781 57.2525 33.5914 57.4214C33.8047 57.5902 33.8407 57.9 33.6719 58.1133C33.5192 58.3061 33.362 58.4953 33.2003 58.6808C36.5801 61.3353 41.0201 62.6133 45.5922 61.8521C52.6533 60.6765 57.842 54.9999 58.7088 48.2472C58.4388 48.3365 58.1646 48.4178 57.8863 48.4907C57.6232 48.5596 57.354 48.4022 57.285 48.1391C57.216 47.8759 57.3735 47.6067 57.6366 47.5378C58.1308 47.4082 58.6114 47.2503 59.0768 47.0659C59.0905 47.0598 59.1044 47.0542 59.1187 47.0493C64.4847 44.9017 67.8273 39.2452 66.8391 33.3096C66.1547 29.1987 63.5489 25.8873 60.0919 24.1423C60.0321 24.6077 59.9571 25.0694 59.8674 25.5267C59.815 25.7937 59.5561 25.9676 59.2892 25.9152C59.0222 25.8628 58.8483 25.6039 58.9007 25.337C59.3594 23.0002 59.414 20.5425 58.9996 18.0534C57.1477 6.92988 46.629 -0.586263 35.5054 1.26565ZM59.7439 47.857C65.3791 45.4648 68.8606 39.4528 67.8109 33.1478C67.0507 28.5818 64.0915 24.9312 60.1998 23.099C60.3335 21.3967 60.2642 19.6511 59.9713 17.8917C58.03 6.23144 47.0039 -1.64733 35.3437 0.29393C28.3357 1.46065 22.6943 5.90903 19.7294 11.8028C17.9059 11.4845 15.9989 11.464 14.0708 11.785C4.90261 13.3114 -1.29234 21.9811 0.234042 31.1493C1.01426 35.8357 3.66139 39.7454 7.28612 42.2435C6.1143 44.9105 5.67886 47.9375 6.1928 51.0246C7.60065 59.4808 15.5971 65.1947 24.0533 63.7868C27.3969 63.2302 30.3123 61.6429 32.5277 59.4049C36.1239 62.2575 40.8684 63.6372 45.754 62.8238C53.4343 61.5452 59.0271 55.2543 59.7439 47.857Z" fill="#C3C3C1"/>
<path d="M31.4055 29.0232C31.4055 30.1113 30.9129 30.9933 29.9278 30.9933C28.9427 30.9933 28.4502 30.1113 28.4502 29.0232C28.4502 27.9351 28.9427 27.053 29.9278 27.053C30.9129 27.053 31.4055 27.9351 31.4055 29.0232Z" fill="#757470"/>
<path d="M39.6145 29.0232C39.6145 30.1113 39.1219 30.9933 38.1368 30.9933C37.1517 30.9933 36.6592 30.1113 36.6592 29.0232C36.6592 27.9351 37.1517 27.053 38.1368 27.053C39.1219 27.053 39.6145 27.9351 39.6145 29.0232Z" fill="#757470"/>
<path fill-rule="evenodd" clip-rule="evenodd" d="M39.7446 34.0135C39.8902 34.1217 39.9205 34.3274 39.8124 34.473C38.5524 36.1687 36.4307 36.9617 34.2608 36.9469C32.0891 36.9321 29.8189 36.11 28.2182 34.5093C28.09 34.3811 28.09 34.1732 28.2182 34.0449C28.3465 33.9167 28.5544 33.9167 28.6826 34.0449C30.1467 35.509 32.2445 36.2764 34.2653 36.2902C36.2879 36.304 38.183 35.5647 39.2852 34.0813C39.3934 33.9357 39.5991 33.9054 39.7446 34.0135Z" fill="#757470"/>
</svg>
