<svg xmlns="http://www.w3.org/2000/svg" width="18" height="18" viewBox="0 0 18 18" fill="none">
<path fill-rule="evenodd" clip-rule="evenodd" d="M9 2C5.13401 2 2 5.13401 2 9C2 12.866 5.13401 16 9 16C12.866 16 16 12.866 16 9C16 5.13401 12.866 2 9 2ZM0 9C0 4.02944 4.02944 0 9 0C13.9706 0 18 4.02944 18 9C18 13.9706 13.9706 18 9 18C4.02944 18 0 13.9706 0 9ZM9 4.26667C9.55229 4.26667 10 4.71438 10 5.26667V8.58579L11.3071 9.89289C11.6976 10.2834 11.6976 10.9166 11.3071 11.3071C10.9166 11.6976 10.2834 11.6976 9.89289 11.3071L8.29289 9.70711C8.10536 9.51957 8 9.26522 8 9V5.26667C8 4.71438 8.44772 4.26667 9 4.26667Z" fill="#757470"/>
</svg>