<svg xmlns="http://www.w3.org/2000/svg" width="17" height="14" viewBox="0 0 17 14" fill="none">
<path fill-rule="evenodd" clip-rule="evenodd" d="M2.9 0.600098C1.57452 0.600098 0.5 1.67461 0.5 3.0001V11.0001C0.5 12.3256 1.57452 13.4001 2.9 13.4001H9.3C9.74183 13.4001 10.1 13.0419 10.1 12.6001C10.1 12.1583 10.4582 11.8001 10.9 11.8001C11.3418 11.8001 11.7 12.1583 11.7 12.6001C11.7 13.0419 12.0582 13.4001 12.5 13.4001H14.1C15.4255 13.4001 16.5 12.3256 16.5 11.0001V3.0001C16.5 1.67461 15.4255 0.600098 14.1 0.600098H12.5C12.0582 0.600098 11.7 0.95827 11.7 1.4001C11.7 1.84193 11.3418 2.2001 10.9 2.2001C10.4582 2.2001 10.1 1.84193 10.1 1.4001C10.1 0.95827 9.74183 0.600098 9.3 0.600098H2.9ZM11.7 5.4001C11.7 4.95827 11.3418 4.6001 10.9 4.6001C10.4582 4.6001 10.1 4.95827 10.1 5.4001V8.6001C10.1 9.04193 10.4582 9.4001 10.9 9.4001C11.3418 9.4001 11.7 9.04193 11.7 8.6001V5.4001Z" fill="white"/>
</svg>